<?xml version="1.0" encoding="utf-8" ?>
<svg baseProfile="full" height="297mm" version="1.1" viewBox="0 0 210 297" width="210mm" xmlns="http://www.w3.org/2000/svg" xmlns:ev="http://www.w3.org/2001/xml-events" xmlns:xlink="http://www.w3.org/1999/xlink"><defs /><rect fill="white" height="297" stroke="black" width="70.0" x="0.0" y="0" /><line stroke="black" x1="0.0" x2="0.0" y1="0" y2="297" /><text font-size="6px" x="37.0" y="42.875">85.75mm</text><line stroke="black" x1="35.0" x2="35.0" y1="0" y2="85.75" /><line stroke="black" stroke-dasharray="5,5" x1="0.0" x2="70.0" y1="85.75" y2="85.75" /><line stroke="black" x1="0.0" x2="17.5" y1="211.25" y2="211.25" /><line stroke="black" stroke-dasharray="5,5" x1="17.5" x2="17.5" y1="211.25" y2="297.0" /><line stroke="black" x1="52.5" x2="70.0" y1="211.25" y2="211.25" /><line stroke="black" stroke-dasharray="5,5" x1="52.5" x2="52.5" y1="211.25" y2="297.0" /><text font-size="6px" x="19.5" y="254.125">85.75mm</text><line stroke="black" stroke-dasharray="5,5" x1="0.0" x2="70.0" y1="287" y2="287" /><rect fill="white" height="297" stroke="black" width="70.0" x="70.0" y="0" /><line stroke="black" x1="70.0" x2="70.0" y1="0" y2="297" /><text font-size="6px" x="107.0" y="42.875">85.75mm</text><line stroke="black" x1="105.0" x2="105.0" y1="0" y2="85.75" /><line stroke="black" stroke-dasharray="5,5" x1="70.0" x2="140.0" y1="85.75" y2="85.75" /><line stroke="black" x1="70.0" x2="87.5" y1="237.625" y2="237.625" /><line stroke="black" stroke-dasharray="5,5" x1="87.5" x2="87.5" y1="237.625" y2="297.0" /><line stroke="black" x1="122.5" x2="140.0" y1="237.625" y2="237.625" /><line stroke="black" stroke-dasharray="5,5" x1="122.5" x2="122.5" y1="237.625" y2="297.0" /><text font-size="6px" x="89.5" y="267.3125">59.375mm</text><line stroke="black" stroke-dasharray="5,5" x1="70.0" x2="140.0" y1="287" y2="287" /><rect fill="white" height="297" stroke="black" width="70.0" x="140.0" y="0" /><line stroke="black" x1="140.0" x2="140.0" y1="0" y2="297" /><text font-size="6px" x="177.0" y="42.875">85.75mm</text><line stroke="black" x1="175.0" x2="175.0" y1="0" y2="85.75" /><line stroke="black" stroke-dasharray="5,5" x1="140.0" x2="210.0" y1="85.75" y2="85.75" /><line stroke="black" x1="140.0" x2="157.5" y1="264.0" y2="264.0" /><line stroke="black" stroke-dasharray="5,5" x1="157.5" x2="157.5" y1="264.0" y2="297.0" /><line stroke="black" x1="192.5" x2="210.0" y1="264.0" y2="264.0" /><line stroke="black" stroke-dasharray="5,5" x1="192.5" x2="192.5" y1="264.0" y2="297.0" /><text font-size="6px" x="159.5" y="280.5">33.0mm</text><line stroke="black" stroke-dasharray="5,5" x1="140.0" x2="210.0" y1="287" y2="287" /></svg>