<?xml version="1.0" encoding="utf-8" ?>
<svg baseProfile="full" height="297mm" version="1.1" viewBox="0 0 210 297" width="210mm" xmlns="http://www.w3.org/2000/svg" xmlns:ev="http://www.w3.org/2001/xml-events" xmlns:xlink="http://www.w3.org/1999/xlink"><defs /><rect fill="white" height="297" stroke="black" width="70.0" x="0.0" y="0" /><line stroke="black" x1="0.0" x2="0.0" y1="0" y2="297" /><line stroke="black" x1="35.0" x2="35.0" y1="0" y2="40.0" /><line stroke="black" stroke-dasharray="5,5" x1="0.0" x2="70.0" y1="40.0" y2="40.0" /><line stroke="black" x1="0.0" x2="17.5" y1="226.0" y2="226.0" /><line stroke="black" stroke-dasharray="5,5" x1="17.5" x2="17.5" y1="226.0" y2="297.0" /><line stroke="black" x1="52.5" x2="70.0" y1="226.0" y2="226.0" /><line stroke="black" stroke-dasharray="5,5" x1="52.5" x2="52.5" y1="226.0" y2="297.0" /><rect fill="white" height="297" stroke="black" width="70.0" x="70.0" y="0" /><line stroke="black" x1="70.0" x2="70.0" y1="0" y2="297" /><line stroke="black" x1="105.0" x2="105.0" y1="0" y2="40.0" /><line stroke="black" stroke-dasharray="5,5" x1="70.0" x2="140.0" y1="40.0" y2="40.0" /><line stroke="black" x1="70.0" x2="87.5" y1="257.0" y2="257.0" /><line stroke="black" stroke-dasharray="5,5" x1="87.5" x2="87.5" y1="257.0" y2="297.0" /><line stroke="black" x1="122.5" x2="140.0" y1="257.0" y2="257.0" /><line stroke="black" stroke-dasharray="5,5" x1="122.5" x2="122.5" y1="257.0" y2="297.0" /></svg>